<svg xmlns="http://www.w3.org/2000/svg" xml:space="preserve" width="1500" height="1500" data-id="lg_DiTgyTNfqnlPVUhupq" data-version="1" viewBox="0 0 1500 1500"><path fill="#9cd9ff" stroke="transparent" d="M0 0h1500v1500H0z"/><g data-padding="20"><g transform="translate(-571.429 -564.097)scale(1.69575)"><rect width="378.342" height="554.83" x="189.586" y="97.219" fill="none" rx="0" ry="0" transform="translate(410.04 402.69)"/><path fill="#0da2ff" d="m605.157 931.064 55.97-343.7h73.16l55.97 343.7h-54.01l-9.82-68.25v.98h-61.37l-9.82 67.27Zm66.28-113.91h48.61l-24.06-169.89h-.98Zm215.05 118.82q-39.28 0-59.41-22.34t-20.13-64.08v-19.64h51.06v23.57q0 33.39 27.99 33.39 13.75 0 20.87-8.1t7.12-26.27q0-21.61-9.82-38.05-9.82-16.45-36.34-39.53-33.39-29.46-46.64-53.27-13.26-23.82-13.26-53.77 0-40.75 20.62-63.09t59.9-22.34q38.79 0 58.68 22.34 19.88 22.34 19.88 64.07v14.24h-51.06v-17.67q0-17.68-6.87-25.78-6.88-8.1-20.13-8.1-27.01 0-27.01 32.9 0 18.65 10.07 34.86 10.06 16.2 36.58 39.28 33.87 29.46 46.64 53.52 12.77 24.05 12.77 56.46 0 42.23-20.87 64.81-20.87 22.59-60.64 22.59" paint-order="stroke"/><rect width="378.342" height="554.83" x="189.586" y="97.219" fill="none" rx="0" ry="0" transform="translate(390.96 397.91)"/><path d="m586.077 926.294 55.97-343.7h73.16l55.97 343.7h-54.01l-9.82-68.25v.98h-61.37l-9.82 67.27Zm66.28-113.91h48.61l-24.06-169.89h-.98Zm215.07 118.82q-39.28 0-59.41-22.34t-20.13-64.08v-19.64h51.06v23.57q0 33.39 27.99 33.39 13.75 0 20.87-8.1 7.12-8.11 7.12-26.27 0-21.61-9.82-38.05-9.82-16.45-36.34-39.53-33.39-29.46-46.64-53.27-13.26-23.82-13.26-53.77 0-40.75 20.62-63.09t59.9-22.34q38.79 0 58.68 22.34 19.88 22.34 19.88 64.07v14.24h-51.06v-17.67q0-17.68-6.87-25.78-6.88-8.1-20.14-8.1-27 0-27 32.89 0 18.66 10.06 34.87 10.07 16.2 36.58 39.28 33.88 29.46 46.65 53.51 12.77 24.06 12.77 56.47 0 42.23-20.87 64.81-20.87 22.59-60.64 22.59" paint-order="stroke"/></g><path fill="transparent" stroke="transparent" stroke-width="1.786" d="M395.536 250h708.928v1000H395.536z"/></g></svg>